<svg id="visual" viewBox="0 0 900 600" width="900" height="600" xmlns="http://www.w3.org/2000/svg" xmlns:xlink="http://www.w3.org/1999/xlink" version="1.1"><rect x="0" y="0" width="900" height="600" fill="#009473"></rect><defs><linearGradient id="grad1_0" x1="33.3%" y1="100%" x2="100%" y2="0%"><stop offset="20%" stop-color="#58fc5d" stop-opacity="1"></stop><stop offset="80%" stop-color="#58fc5d" stop-opacity="1"></stop></linearGradient></defs><defs><linearGradient id="grad1_1" x1="33.3%" y1="100%" x2="100%" y2="0%"><stop offset="20%" stop-color="#58fc5d" stop-opacity="1"></stop><stop offset="80%" stop-color="#3fee67" stop-opacity="1"></stop></linearGradient></defs><defs><linearGradient id="grad1_2" x1="33.3%" y1="100%" x2="100%" y2="0%"><stop offset="20%" stop-color="#24df6e" stop-opacity="1"></stop><stop offset="80%" stop-color="#3fee67" stop-opacity="1"></stop></linearGradient></defs><defs><linearGradient id="grad1_3" x1="33.3%" y1="100%" x2="100%" y2="0%"><stop offset="20%" stop-color="#24df6e" stop-opacity="1"></stop><stop offset="80%" stop-color="#00d073" stop-opacity="1"></stop></linearGradient></defs><defs><linearGradient id="grad1_4" x1="33.3%" y1="100%" x2="100%" y2="0%"><stop offset="20%" stop-color="#00c176" stop-opacity="1"></stop><stop offset="80%" stop-color="#00d073" stop-opacity="1"></stop></linearGradient></defs><defs><linearGradient id="grad1_5" x1="33.3%" y1="100%" x2="100%" y2="0%"><stop offset="20%" stop-color="#00c176" stop-opacity="1"></stop><stop offset="80%" stop-color="#00b277" stop-opacity="1"></stop></linearGradient></defs><defs><linearGradient id="grad1_6" x1="33.3%" y1="100%" x2="100%" y2="0%"><stop offset="20%" stop-color="#00a376" stop-opacity="1"></stop><stop offset="80%" stop-color="#00b277" stop-opacity="1"></stop></linearGradient></defs><defs><linearGradient id="grad1_7" x1="33.3%" y1="100%" x2="100%" y2="0%"><stop offset="20%" stop-color="#00a376" stop-opacity="1"></stop><stop offset="80%" stop-color="#009473" stop-opacity="1"></stop></linearGradient></defs><defs><linearGradient id="grad2_0" x1="0%" y1="100%" x2="66.7%" y2="0%"><stop offset="20%" stop-color="#58fc5d" stop-opacity="1"></stop><stop offset="80%" stop-color="#58fc5d" stop-opacity="1"></stop></linearGradient></defs><defs><linearGradient id="grad2_1" x1="0%" y1="100%" x2="66.7%" y2="0%"><stop offset="20%" stop-color="#3fee67" stop-opacity="1"></stop><stop offset="80%" stop-color="#58fc5d" stop-opacity="1"></stop></linearGradient></defs><defs><linearGradient id="grad2_2" x1="0%" y1="100%" x2="66.7%" y2="0%"><stop offset="20%" stop-color="#3fee67" stop-opacity="1"></stop><stop offset="80%" stop-color="#24df6e" stop-opacity="1"></stop></linearGradient></defs><defs><linearGradient id="grad2_3" x1="0%" y1="100%" x2="66.7%" y2="0%"><stop offset="20%" stop-color="#00d073" stop-opacity="1"></stop><stop offset="80%" stop-color="#24df6e" stop-opacity="1"></stop></linearGradient></defs><defs><linearGradient id="grad2_4" x1="0%" y1="100%" x2="66.7%" y2="0%"><stop offset="20%" stop-color="#00d073" stop-opacity="1"></stop><stop offset="80%" stop-color="#00c176" stop-opacity="1"></stop></linearGradient></defs><defs><linearGradient id="grad2_5" x1="0%" y1="100%" x2="66.7%" y2="0%"><stop offset="20%" stop-color="#00b277" stop-opacity="1"></stop><stop offset="80%" stop-color="#00c176" stop-opacity="1"></stop></linearGradient></defs><defs><linearGradient id="grad2_6" x1="0%" y1="100%" x2="66.7%" y2="0%"><stop offset="20%" stop-color="#00b277" stop-opacity="1"></stop><stop offset="80%" stop-color="#00a376" stop-opacity="1"></stop></linearGradient></defs><defs><linearGradient id="grad2_7" x1="0%" y1="100%" x2="66.7%" y2="0%"><stop offset="20%" stop-color="#009473" stop-opacity="1"></stop><stop offset="80%" stop-color="#00a376" stop-opacity="1"></stop></linearGradient></defs><g transform="translate(900, 600)"><path d="M-351.5 0C-343.6 -13.3 -335.7 -26.6 -333.6 -40.5C-331.4 -54.4 -334.9 -69 -331.1 -81.6C-327.3 -94.2 -316.2 -104.8 -313.2 -118.8C-310.2 -132.7 -315.3 -150 -311.3 -163.4C-307.3 -176.7 -294.3 -186.1 -283.1 -195.4C-271.9 -204.7 -262.5 -214 -254.5 -225.5C-246.5 -236.9 -239.9 -250.5 -228.8 -258.2C-217.6 -265.9 -201.8 -267.7 -190.3 -275.7C-178.8 -283.7 -171.5 -298 -160.3 -305.5C-149.1 -313 -133.9 -313.6 -120.2 -317C-106.5 -320.3 -94.2 -326.4 -81.1 -329.1C-68.1 -331.9 -54.3 -331.4 -40.6 -334.5C-27 -337.7 -13.5 -344.6 0 -351.5L0 0Z" fill="#009c75"></path><path d="M-307.6 0C-300.7 -11.6 -293.8 -23.2 -291.9 -35.4C-289.9 -47.6 -293 -60.4 -289.7 -71.4C-286.4 -82.4 -276.7 -91.7 -274.1 -103.9C-271.4 -116.2 -275.8 -131.3 -272.4 -142.9C-268.9 -154.6 -257.5 -162.8 -247.7 -171C-237.9 -179.1 -229.7 -187.3 -222.7 -197.3C-215.7 -207.3 -210 -219.2 -200.2 -226C-190.4 -232.7 -176.6 -234.2 -166.5 -241.2C-156.4 -248.3 -150.1 -260.8 -140.3 -267.3C-130.5 -273.8 -117.2 -274.4 -105.2 -277.3C-93.2 -280.3 -82.4 -285.6 -71 -288C-59.6 -290.4 -47.5 -289.9 -35.5 -292.7C-23.6 -295.5 -11.8 -301.6 0 -307.6L0 0Z" fill="#00ab77"></path><path d="M-263.7 0C-257.7 -10 -251.8 -19.9 -250.2 -30.4C-248.5 -40.8 -251.2 -51.8 -248.3 -61.2C-245.5 -70.7 -237.2 -78.6 -234.9 -89.1C-232.7 -99.6 -236.4 -112.5 -233.5 -122.5C-230.5 -132.5 -220.7 -139.6 -212.3 -146.6C-203.9 -153.6 -196.9 -160.5 -190.9 -169.1C-184.9 -177.7 -180 -187.9 -171.6 -193.7C-163.2 -199.4 -151.4 -200.8 -142.7 -206.8C-134.1 -212.8 -128.7 -223.5 -120.2 -229.1C-111.8 -234.7 -100.5 -235.2 -90.2 -237.7C-79.9 -240.2 -70.6 -244.8 -60.8 -246.9C-51.1 -248.9 -40.7 -248.5 -30.5 -250.9C-20.2 -253.3 -10.1 -258.5 0 -263.7L0 0Z" fill="#00ba77"></path><path d="M-219.7 0C-214.8 -8.3 -209.8 -16.6 -208.5 -25.3C-207.1 -34 -209.3 -43.1 -206.9 -51C-204.6 -58.9 -197.7 -65.5 -195.8 -74.2C-193.9 -83 -197 -93.8 -194.5 -102.1C-192.1 -110.4 -183.9 -116.3 -176.9 -122.1C-169.9 -128 -164.1 -133.8 -159.1 -140.9C-154.1 -148.1 -150 -156.6 -143 -161.4C-136 -166.2 -126.1 -167.3 -118.9 -172.3C-111.7 -177.3 -107.2 -186.3 -100.2 -190.9C-93.2 -195.6 -83.7 -196 -75.1 -198.1C-66.5 -200.2 -58.9 -204 -50.7 -205.7C-42.5 -207.4 -33.9 -207.1 -25.4 -209.1C-16.9 -211.1 -8.4 -215.4 0 -219.7L0 0Z" fill="#00c975"></path><path d="M-175.8 0C-171.8 -6.6 -167.9 -13.3 -166.8 -20.3C-165.7 -27.2 -167.4 -34.5 -165.5 -40.8C-163.7 -47.1 -158.1 -52.4 -156.6 -59.4C-155.1 -66.4 -157.6 -75 -155.6 -81.7C-153.6 -88.4 -147.2 -93 -141.6 -97.7C-136 -102.4 -131.2 -107 -127.2 -112.7C-123.3 -118.5 -120 -125.3 -114.4 -129.1C-108.8 -133 -100.9 -133.8 -95.2 -137.8C-89.4 -141.9 -85.8 -149 -80.2 -152.7C-74.6 -156.5 -67 -156.8 -60.1 -158.5C-53.2 -160.2 -47.1 -163.2 -40.6 -164.6C-34 -166 -27.1 -165.7 -20.3 -167.3C-13.5 -168.9 -6.7 -172.3 0 -175.8L0 0Z" fill="#13d771"></path><path d="M-131.8 0C-128.9 -5 -125.9 -10 -125.1 -15.2C-124.3 -20.4 -125.6 -25.9 -124.2 -30.6C-122.7 -35.3 -118.6 -39.3 -117.5 -44.5C-116.3 -49.8 -118.2 -56.3 -116.7 -61.3C-115.2 -66.3 -110.4 -69.8 -106.2 -73.3C-102 -76.8 -98.4 -80.3 -95.4 -84.5C-92.4 -88.8 -90 -94 -85.8 -96.8C-81.6 -99.7 -75.7 -100.4 -71.4 -103.4C-67 -106.4 -64.3 -111.8 -60.1 -114.6C-55.9 -117.4 -50.2 -117.6 -45.1 -118.9C-39.9 -120.1 -35.3 -122.4 -30.4 -123.4C-25.5 -124.5 -20.4 -124.3 -15.2 -125.5C-10.1 -126.6 -5.1 -129.2 0 -131.8L0 0Z" fill="#32e66b"></path><path d="M-87.9 0C-85.9 -3.3 -83.9 -6.6 -83.4 -10.1C-82.8 -13.6 -83.7 -17.3 -82.8 -20.4C-81.8 -23.6 -79.1 -26.2 -78.3 -29.7C-77.6 -33.2 -78.8 -37.5 -77.8 -40.8C-76.8 -44.2 -73.6 -46.5 -70.8 -48.9C-68 -51.2 -65.6 -53.5 -63.6 -56.4C-61.6 -59.2 -60 -62.6 -57.2 -64.6C-54.4 -66.5 -50.5 -66.9 -47.6 -68.9C-44.7 -70.9 -42.9 -74.5 -40.1 -76.4C-37.3 -78.2 -33.5 -78.4 -30.1 -79.2C-26.6 -80.1 -23.5 -81.6 -20.3 -82.3C-17 -83 -13.6 -82.8 -10.2 -83.6C-6.7 -84.4 -3.4 -86.2 0 -87.9L0 0Z" fill="#4bf562"></path><path d="M-43.9 0C-43 -1.7 -42 -3.3 -41.7 -5.1C-41.4 -6.8 -41.9 -8.6 -41.4 -10.2C-40.9 -11.8 -39.5 -13.1 -39.2 -14.8C-38.8 -16.6 -39.4 -18.8 -38.9 -20.4C-38.4 -22.1 -36.8 -23.3 -35.4 -24.4C-34 -25.6 -32.8 -26.8 -31.8 -28.2C-30.8 -29.6 -30 -31.3 -28.6 -32.3C-27.2 -33.2 -25.2 -33.5 -23.8 -34.5C-22.3 -35.5 -21.4 -37.3 -20 -38.2C-18.6 -39.1 -16.7 -39.2 -15 -39.6C-13.3 -40 -11.8 -40.8 -10.1 -41.1C-8.5 -41.5 -6.8 -41.4 -5.1 -41.8C-3.4 -42.2 -1.7 -43.1 0 -43.9L0 0Z" fill="#58fc5d"></path></g><g transform="translate(0, 0)"><path d="M351.5 0C348.1 13.9 344.6 27.8 342.5 41.6C340.4 55.4 339.7 69.1 338.9 83.5C338.1 98 337.2 113.1 328.7 124.7C320.2 136.2 304.2 144.1 294.9 154.8C285.5 165.4 282.8 178.9 277.3 191.4C271.9 203.9 263.8 215.5 254.5 225.5C245.2 235.5 234.6 243.9 225.5 254.5C216.4 265.1 208.7 277.8 198.3 287.2C187.8 296.6 174.4 302.8 160.3 305.5C146.2 308.2 131.4 307.5 118.4 312.3C105.5 317.1 94.4 327.6 81.6 331.1C68.8 334.6 54.4 331.3 40.5 333.6C26.6 335.8 13.3 343.7 0 351.5L0 0Z" fill="#009c75"></path><path d="M307.6 0C304.6 12.2 301.5 24.3 299.7 36.4C297.8 48.5 297.2 60.4 296.5 73.1C295.8 85.7 295 99 287.6 109.1C280.2 119.2 266.2 126.1 258 135.4C249.8 144.8 247.4 156.6 242.7 167.5C237.9 178.5 230.9 188.5 222.7 197.3C214.5 206 205.2 213.4 197.3 222.7C189.3 231.9 182.6 243.1 173.5 251.3C164.3 259.6 152.6 264.9 140.3 267.3C128 269.7 115 269 103.6 273.3C92.3 277.5 82.6 286.6 71.4 289.7C60.2 292.8 47.6 289.9 35.4 291.9C23.3 293.8 11.6 300.7 0 307.6L0 0Z" fill="#00ab77"></path><path d="M263.7 0C261 10.4 258.4 20.8 256.9 31.2C255.3 41.5 254.8 51.8 254.1 62.6C253.5 73.5 252.9 84.8 246.5 93.5C240.2 102.1 228.2 108.1 221.1 116.1C214.1 124.1 212.1 134.2 208 143.6C203.9 153 197.9 161.6 190.9 169.1C183.9 176.6 175.9 182.9 169.1 190.9C162.3 198.8 156.6 208.3 148.7 215.4C140.8 222.5 130.8 227.1 120.2 229.1C109.7 231.1 98.6 230.6 88.8 234.2C79.1 237.9 70.8 245.7 61.2 248.3C51.6 251 40.8 248.5 30.4 250.2C20 251.9 10 257.8 0 263.7L0 0Z" fill="#00ba77"></path><path d="M219.7 0C217.5 8.7 215.4 17.4 214.1 26C212.7 34.6 212.3 43.2 211.8 52.2C211.3 61.2 210.7 70.7 205.4 77.9C200.2 85.1 190.1 90 184.3 96.7C178.4 103.4 176.7 111.8 173.3 119.6C170 127.5 164.9 134.7 159.1 140.9C153.2 147.2 146.6 152.4 140.9 159.1C135.2 165.7 130.5 173.6 123.9 179.5C117.4 185.4 109 189.2 100.2 190.9C91.4 192.6 82.1 192.2 74 195.2C65.9 198.2 59 204.7 51 206.9C43 209.1 34 207.1 25.3 208.5C16.6 209.9 8.3 214.8 0 219.7L0 0Z" fill="#00c975"></path><path d="M175.8 0C174 6.9 172.3 13.9 171.2 20.8C170.2 27.7 169.8 34.5 169.4 41.8C169 49 168.6 56.6 164.3 62.3C160.1 68.1 152.1 72 147.4 77.4C142.7 82.7 141.4 89.5 138.7 95.7C136 102 131.9 107.7 127.2 112.7C122.6 117.7 117.3 122 112.7 127.2C108.2 132.5 104.4 138.9 99.1 143.6C93.9 148.3 87.2 151.4 80.2 152.7C73.1 154.1 65.7 153.7 59.2 156.1C52.7 158.6 47.2 163.8 40.8 165.5C34.4 167.3 27.2 165.6 20.3 166.8C13.3 167.9 6.7 171.8 0 175.8L0 0Z" fill="#13d771"></path><path d="M131.8 0C130.5 5.2 129.2 10.4 128.4 15.6C127.6 20.8 127.4 25.9 127.1 31.3C126.8 36.7 126.4 42.4 123.3 46.7C120.1 51.1 114.1 54 110.6 58C107.1 62 106 67.1 104 71.8C102 76.5 98.9 80.8 95.4 84.5C91.9 88.3 88 91.5 84.5 95.4C81.1 99.4 78.3 104.2 74.3 107.7C70.4 111.2 65.4 113.5 60.1 114.6C54.8 115.6 49.3 115.3 44.4 117.1C39.6 118.9 35.4 122.8 30.6 124.2C25.8 125.5 20.4 124.2 15.2 125.1C10 125.9 5 128.9 0 131.8L0 0Z" fill="#32e66b"></path><path d="M87.9 0C87 3.5 86.1 6.9 85.6 10.4C85.1 13.8 84.9 17.3 84.7 20.9C84.5 24.5 84.3 28.3 82.2 31.2C80.1 34 76.1 36 73.7 38.7C71.4 41.4 70.7 44.7 69.3 47.9C68 51 66 53.9 63.6 56.4C61.3 58.9 58.6 61 56.4 63.6C54.1 66.3 52.2 69.4 49.6 71.8C46.9 74.2 43.6 75.7 40.1 76.4C36.6 77 32.9 76.9 29.6 78.1C26.4 79.3 23.6 81.9 20.4 82.8C17.2 83.7 13.6 82.8 10.1 83.4C6.7 84 3.3 85.9 0 87.9L0 0Z" fill="#4bf562"></path><path d="M43.9 0C43.5 1.7 43.1 3.5 42.8 5.2C42.5 6.9 42.5 8.6 42.4 10.4C42.3 12.2 42.1 14.1 41.1 15.6C40 17 38 18 36.9 19.3C35.7 20.7 35.3 22.4 34.7 23.9C34 25.5 33 26.9 31.8 28.2C30.6 29.4 29.3 30.5 28.2 31.8C27 33.1 26.1 34.7 24.8 35.9C23.5 37.1 21.8 37.8 20 38.2C18.3 38.5 16.4 38.4 14.8 39C13.2 39.6 11.8 40.9 10.2 41.4C8.6 41.8 6.8 41.4 5.1 41.7C3.3 42 1.7 43 0 43.9L0 0Z" fill="#58fc5d"></path></g></svg>